<?xml version="1.0" standalone="no"?>
<!DOCTYPE svg PUBLIC "-//W3C//DTD SVG 20010904//EN"
 "http://www.w3.org/TR/2001/REC-SVG-20010904/DTD/svg10.dtd">
<svg version="1.0" xmlns="http://www.w3.org/2000/svg"
 width="2048.000000pt" height="2048.000000pt" viewBox="0 0 2048.000000 2048.000000"
 preserveAspectRatio="xMidYMid meet">

<g transform="translate(0.000000,2048.000000) scale(0.100000,-0.100000)"
fill="#000000" stroke="none">
<path d="M6305 15091 c-16 -10 -160 -151 -320 -312 -159 -162 -495 -501 -745
-754 -250 -253 -566 -573 -702 -711 l-248 -250 0 -1924 0 -1925 108 1 107 1 3
1826 2 1826 808 3 807 3 72 34 c135 63 239 201 262 351 7 41 11 356 11 848 l0
782 2228 -2 2227 -3 59 -30 c71 -36 128 -98 158 -174 l23 -56 5 -1826 5 -1827
108 102 108 101 -3 1740 c-3 1666 -4 1742 -22 1795 -62 183 -172 303 -341 371
l-60 24 -2315 3 c-2257 2 -2316 2 -2345 -17z m-70 -1842 c-9 -26 -32 -64 -52
-84 -71 -73 -42 -70 -688 -73 -319 -1 -643 -1 -720 0 l-140 3 191 195 c104
107 467 476 805 818 l614 624 3 -718 c2 -627 0 -724 -13 -765z"/>
<path d="M15385 14764 c-75 -19 -149 -49 -188 -77 -24 -18 -134 -124 -243
-237 -109 -113 -401 -412 -649 -665 -248 -253 -610 -624 -805 -825 -194 -201
-442 -455 -550 -565 -108 -110 -277 -283 -376 -385 -694 -715 -899 -925 -1211
-1240 l-352 -355 -140 -420 c-77 -231 -210 -628 -296 -883 -183 -546 -187
-559 -174 -607 23 -83 88 -84 299 0 80 31 253 97 385 147 131 49 417 159 635
244 217 85 444 174 505 197 l109 42 126 130 c69 71 343 355 610 630 267 276
582 602 700 725 118 124 316 329 440 455 124 127 412 424 640 660 228 236 485
502 570 590 85 88 265 275 400 415 135 140 331 343 437 451 204 209 262 284
293 387 27 87 27 217 0 303 -29 94 -78 160 -224 299 -72 69 -210 202 -306 296
-257 251 -317 285 -505 290 -60 2 -119 1 -130 -2z m232 -228 c37 -18 100 -72
225 -193 96 -92 240 -232 320 -310 81 -78 155 -157 164 -175 11 -20 19 -65 22
-116 4 -77 2 -87 -26 -145 -23 -45 -57 -87 -126 -154 -53 -51 -98 -93 -102
-93 -9 0 -367 341 -797 758 l-188 182 90 96 c133 142 185 172 301 173 49 1 78
-5 117 -23z m-196 -852 c250 -242 470 -454 489 -472 l35 -31 -80 -84 c-44 -46
-82 -85 -86 -86 -6 -1 -6 -2 -409 389 -168 162 -368 354 -444 426 l-139 132
79 86 c43 47 84 85 90 84 6 -2 216 -201 465 -444z m-682 22 c82 -80 89 -90 77
-107 -7 -11 -145 -155 -307 -322 -269 -277 -368 -378 -739 -762 -342 -354
-1034 -1065 -1380 -1420 -113 -115 -287 -293 -386 -395 -98 -102 -237 -244
-308 -317 l-129 -132 -38 43 c-39 44 -142 106 -176 106 -11 0 -22 2 -24 5 -7
6 235 259 616 645 328 333 1542 1577 2255 2313 234 241 430 436 437 435 6 -2
53 -43 102 -92z m390 -377 l135 -130 -145 -147 c-79 -81 -290 -295 -469 -477
-293 -297 -685 -700 -1074 -1105 -76 -80 -223 -230 -325 -335 -162 -164 -385
-395 -1126 -1162 l-150 -155 -50 68 c-27 37 -84 94 -125 127 -41 33 -76 63
-78 67 -4 9 439 468 1273 1320 116 118 507 521 870 895 362 374 743 766 845
870 103 105 209 214 235 243 26 28 48 52 49 52 0 0 61 -59 135 -131z m397
-376 l104 -96 -112 -116 c-62 -64 -205 -210 -318 -326 -229 -233 -1357 -1397
-1740 -1795 -710 -739 -1131 -1170 -1141 -1170 -5 0 -9 6 -9 13 0 30 -63 136
-104 177 l-45 44 72 80 c40 43 200 210 357 370 157 160 407 417 555 571 149
154 421 435 606 625 624 641 1344 1384 1505 1552 87 92 161 167 162 168 2 0
51 -44 108 -97z m-4241 -2773 c84 -37 124 -75 156 -145 30 -67 45 -83 106
-114 58 -29 160 -118 213 -186 83 -107 102 -125 163 -157 113 -60 189 -155
209 -262 4 -22 -107 -70 -522 -227 -146 -55 -298 -113 -338 -129 l-74 -29
-117 108 c-64 60 -142 131 -172 159 l-55 50 160 486 160 485 25 -6 c14 -3 53
-18 86 -33z m-333 -1342 c-9 -4 -71 -28 -137 -54 -66 -25 -125 -48 -131 -51
-7 -2 6 44 27 104 21 59 43 127 49 151 l11 43 99 -93 c79 -74 95 -94 82 -100z"/>
<path d="M5225 9495 c-21 -20 -25 -34 -25 -87 0 -41 5 -71 16 -86 l15 -22
2508 0 2507 0 22 20 c18 17 22 32 22 86 0 56 -4 68 -25 89 l-24 25 -2496 0
-2496 0 -24 -25z"/>
<path d="M3738 8921 l-33 -29 4 -768 c4 -851 0 -804 70 -824 51 -14 8252 -14
8303 0 20 6 46 22 58 37 20 25 20 36 20 725 0 649 -1 700 -17 694 -9 -4 -58
-23 -110 -43 l-93 -37 0 -583 0 -583 -4010 0 -4010 0 0 610 0 610 3119 0 3119
0 11 33 c5 17 17 60 26 94 8 34 18 69 21 78 6 13 -326 15 -3220 15 l-3226 0
-32 -29z"/>
<path d="M5560 8120 l0 -340 65 0 65 0 0 130 0 131 72 -3 72 -3 67 -125 67
-125 71 -3 c39 -2 71 1 71 5 0 4 -21 44 -46 88 -25 44 -57 101 -70 127 l-24
48 49 47 c92 90 95 212 7 299 -54 54 -101 64 -306 64 l-160 0 0 -340z m340
215 c36 -19 50 -43 50 -87 0 -69 -57 -108 -157 -108 -105 0 -103 -2 -103 111
l0 99 90 0 c62 0 100 -5 120 -15z"/>
<path d="M6210 8120 l0 -340 245 0 245 0 0 60 0 60 -175 0 -175 0 0 90 0 90
150 0 150 0 0 55 0 55 -150 0 -150 0 0 80 0 80 171 0 170 0 -3 53 -3 52 -237
3 -238 2 0 -340z"/>
<path d="M6810 8120 l0 -341 68 3 67 3 0 222 c0 122 3 219 6 215 17 -19 282
-389 297 -414 15 -26 21 -28 74 -28 l58 0 0 340 0 340 -65 0 -65 0 0 -222 c0
-190 -2 -220 -14 -208 -19 20 -270 379 -285 408 -10 19 -19 22 -76 22 l-65 0
0 -340z"/>
<path d="M7696 8388 c-15 -40 -61 -165 -101 -278 -40 -113 -82 -229 -94 -258
-12 -29 -21 -57 -21 -62 0 -6 29 -10 65 -10 l64 0 26 85 26 86 126 -3 126 -3
27 -80 27 -80 66 -3 c37 -2 67 1 67 6 0 5 -47 135 -104 288 -57 154 -112 303
-122 332 l-19 52 -66 0 -66 0 -27 -72z m138 -191 c21 -67 41 -128 43 -134 4
-10 -18 -13 -87 -13 -69 0 -91 3 -87 13 2 6 22 67 43 134 22 68 41 123 44 123
3 0 22 -55 44 -123z"/>
<path d="M8192 8123 l3 -338 64 -3 64 -3 -6 235 c-3 130 -4 236 -3 236 2 0 41
-94 87 -210 l84 -210 46 0 46 0 84 212 84 212 3 -238 2 -237 63 3 62 3 0 83
c0 45 -2 197 -3 337 l-2 255 -77 0 -78 0 -89 -225 c-49 -124 -91 -223 -95
-220 -3 4 -44 104 -91 223 l-86 217 -82 3 -82 3 2 -338z"/>
<path d="M9040 8120 l0 -340 240 0 240 0 0 60 0 60 -170 0 -170 0 0 90 0 90
150 0 150 0 0 55 0 55 -155 0 -156 0 3 78 3 77 168 3 167 2 0 55 0 55 -235 0
-235 0 0 -340z"/>
<path d="M9974 8148 c-85 -84 -154 -160 -154 -168 0 -21 127 -140 149 -140 11
0 84 67 171 156 l152 157 -73 73 c-41 41 -77 74 -82 74 -5 0 -78 -69 -163
-152z"/>
<path d="M4290 6453 c0 -638 2 -651 69 -788 63 -128 169 -218 319 -271 l67
-24 3087 0 3087 0 75 24 c141 45 263 146 326 271 65 130 64 121 68 768 l3 587
-110 0 -111 0 0 -564 c0 -532 -1 -567 -20 -627 -33 -110 -107 -187 -211 -222
-42 -14 -354 -17 -3057 -22 -2130 -4 -3029 -3 -3077 5 -120 19 -204 80 -257
188 l-33 67 -3 587 -3 588 -109 0 -110 0 0 -567z"/>
<path d="M5247 6481 c-37 -11 -47 -34 -47 -107 0 -50 5 -77 14 -87 22 -22 139
-24 1394 -23 l1154 1 24 28 c18 21 24 40 24 73 0 36 -16 89 -33 106 -4 4
-2516 13 -2530 9z"/>
<path d="M7647 3173 c-4 -3 -7 -35 -7 -70 l0 -63 75 0 75 0 0 70 0 70 -68 0
c-38 0 -72 -3 -75 -7z"/>
<path d="M7940 2790 l0 -390 75 0 75 0 0 390 0 390 -75 0 -75 0 0 -390z"/>
<path d="M7000 2780 l0 -380 75 0 75 0 0 155 0 155 163 2 c89 0 169 1 177 2
11 1 15 16 16 64 l2 62 -179 0 -179 0 0 95 0 95 195 0 195 0 0 65 0 65 -270 0
-270 0 0 -380z"/>
<path d="M9160 2780 l0 -380 75 0 75 0 0 140 0 140 83 0 82 0 75 -140 75 -140
83 0 c45 0 82 4 82 8 0 4 -13 28 -28 53 -37 59 -134 240 -130 243 56 35 83 58
103 88 70 106 45 258 -54 325 -55 37 -96 43 -313 43 l-208 0 0 -380z m405 238
c72 -33 72 -163 0 -196 -15 -7 -73 -12 -140 -12 l-115 0 0 110 0 110 115 0
c67 0 125 -5 140 -12z"/>
<path d="M8391 2959 c-122 -36 -184 -131 -184 -284 -1 -103 12 -142 67 -203
111 -123 349 -110 440 24 29 43 26 54 -12 54 -15 0 -42 4 -61 10 -30 8 -36 7
-61 -20 -32 -34 -87 -47 -139 -31 -44 13 -64 33 -86 84 l-15 37 202 2 203 3
-1 55 c-2 130 -71 234 -175 264 -58 18 -126 19 -178 5z m139 -112 c29 -15 70
-72 70 -98 0 -18 -10 -19 -125 -19 -84 0 -125 4 -125 11 0 6 8 27 17 46 29 63
104 90 163 60z"/>
<path d="M10048 2956 c-81 -22 -143 -82 -173 -167 -17 -48 -20 -167 -5 -221
17 -59 69 -119 133 -152 50 -26 69 -30 136 -29 94 0 152 23 210 83 47 49 51
67 16 75 -14 3 -37 7 -52 10 -16 3 -36 8 -45 11 -10 3 -19 -2 -22 -13 -16 -51
-124 -70 -184 -33 -29 18 -62 71 -62 99 0 7 74 12 203 13 l202 3 -4 60 c-11
199 -164 312 -353 261z m135 -110 c35 -14 62 -48 73 -90 l6 -26 -130 0 -131 0
9 31 c12 40 37 68 75 85 39 17 58 17 98 0z"/>
<path d="M10755 2959 c-16 -6 -45 -25 -62 -42 l-33 -31 0 37 0 37 -70 0 -70 0
0 -280 0 -280 70 0 70 0 0 163 c0 89 5 179 10 199 23 81 117 115 177 64 l28
-24 3 -201 3 -201 76 0 75 0 -4 218 c-3 210 -4 218 -28 261 -14 25 -40 54 -58
64 -39 23 -143 32 -187 16z"/>
<path d="M11289 2955 c-50 -16 -113 -72 -128 -115 -9 -28 -9 -28 37 -35 26 -3
57 -9 69 -12 15 -3 23 1 28 16 10 32 61 54 108 48 50 -7 88 -43 90 -86 l2 -32
-101 -3 c-89 -2 -108 -6 -160 -32 -73 -36 -99 -76 -98 -150 2 -103 74 -167
189 -167 63 -1 90 10 140 51 l30 25 3 -31 3 -32 70 0 70 0 -7 218 c-6 204 -8
220 -30 259 -33 57 -94 86 -193 90 -48 2 -93 -3 -122 -12z m204 -343 c-3 -84
-41 -122 -121 -122 -80 0 -114 41 -88 105 18 42 54 54 146 52 l65 -2 -2 -33z"/>
<path d="M11995 2953 c-16 -8 -40 -25 -52 -36 l-23 -20 0 31 0 32 -69 0 c-39
0 -73 -4 -76 -10 -3 -5 -3 -131 1 -280 l7 -270 68 0 68 0 3 196 3 196 33 29
c41 37 89 39 129 5 l28 -24 3 -201 4 -201 69 0 69 0 0 175 c0 197 8 233 59
259 42 22 75 20 108 -8 l28 -24 3 -201 3 -201 74 0 74 0 -5 218 c-7 245 -16
283 -80 322 -77 48 -205 33 -258 -31 l-25 -30 -16 25 c-38 58 -163 85 -230 49z"/>
<path d="M12915 2961 c-44 -11 -107 -46 -131 -73 -52 -57 -69 -107 -69 -213 0
-112 15 -153 77 -212 118 -114 331 -101 426 26 39 51 36 56 -49 66 -45 6 -58
4 -69 -10 -54 -65 -175 -56 -220 17 -42 69 -43 68 181 68 l202 0 -6 71 c-7 88
-43 166 -95 209 -61 51 -162 71 -247 51z m156 -137 c16 -16 31 -44 35 -61 l7
-33 -127 0 c-110 0 -126 2 -126 16 0 26 39 83 68 99 42 24 108 13 143 -21z"/>
<path d="M13595 2956 c-17 -7 -43 -28 -58 -45 l-27 -33 0 41 0 41 -70 0 -70 0
0 -280 0 -280 70 0 70 0 0 160 c0 182 9 217 62 250 19 12 51 20 76 20 l42 0 0
70 0 70 -32 0 c-18 -1 -47 -7 -63 -14z"/>
<path d="M7643 2778 c4 -99 7 -225 7 -280 l0 -98 70 0 70 0 0 280 0 280 -77 0
-76 0 6 -182z"/>
</g>
</svg>
